<svg xmlns="http://www.w3.org/2000/svg" width="1200" height="640" viewBox="0 0 1200 640" role="img" aria-labelledby="title desc">
  <title id="title">Data augmentation examples</title>
  <desc id="desc">Common image augmentations used to improve YOLO robustness.</desc>
  <style>
    .bg{fill:#fffdf7}.title{font:700 34px 'Microsoft YaHei',Arial,sans-serif;fill:#172026}.body{font:18px 'Microsoft YaHei',Arial,sans-serif;fill:#667085}
    .label{font:700 22px 'Microsoft YaHei',Arial,sans-serif;fill:#172026}.small{font:16px 'Microsoft YaHei',Arial,sans-serif;fill:#667085}.panel{fill:#f7f3ea;stroke:#d8cdb8;stroke-width:2}
    .img{fill:#dbeafe;stroke:#93c5fd;stroke-width:2}.box{fill:none;stroke:#f36f45;stroke-width:5}
  </style>
  <rect class="bg" width="1200" height="640"/>
  <text x="70" y="72" class="title">数据增强在训练中做什么</text>
  <text x="70" y="108" class="body">增强不是凭空创造新类别，而是让模型见到更多光照、尺度、裁剪和组合变化。</text>
  <g transform="translate(80,165)">
    <rect class="panel" width="230" height="310" rx="18"/>
    <rect x="45" y="55" width="140" height="105" rx="8" class="img"/>
    <rect x="80" y="88" width="65" height="48" class="box"/>
    <text x="45" y="215" class="label">原图</text>
    <text x="45" y="250" class="small">真实标注保持不变</text>
  </g>
  <g transform="translate(345,165)">
    <rect class="panel" width="230" height="310" rx="18"/>
    <rect x="45" y="55" width="140" height="105" rx="8" class="img" transform="rotate(-8 115 107)"/>
    <rect x="79" y="86" width="65" height="48" class="box" transform="rotate(-8 111 110)"/>
    <text x="45" y="215" class="label">旋转/缩放</text>
    <text x="45" y="250" class="small">适应角度和距离变化</text>
  </g>
  <g transform="translate(610,165)">
    <rect class="panel" width="230" height="310" rx="18"/>
    <rect x="55" y="52" width="120" height="120" rx="8" fill="#fef3c7" stroke="#f4b942" stroke-width="2"/>
    <line x1="115" y1="52" x2="115" y2="172" stroke="#fffdf7" stroke-width="5"/>
    <line x1="55" y1="112" x2="175" y2="112" stroke="#fffdf7" stroke-width="5"/>
    <rect x="78" y="75" width="42" height="35" class="box"/>
    <text x="45" y="215" class="label">Mosaic</text>
    <text x="45" y="250" class="small">组合多个场景</text>
  </g>
  <g transform="translate(875,165)">
    <rect class="panel" width="230" height="310" rx="18"/>
    <rect x="45" y="55" width="140" height="105" rx="8" fill="#e0f2fe" stroke="#93c5fd" stroke-width="2"/>
    <rect x="80" y="88" width="65" height="48" class="box"/>
    <rect x="45" y="55" width="140" height="105" rx="8" fill="#f36f45" opacity=".18"/>
    <text x="45" y="215" class="label">颜色/亮度</text>
    <text x="45" y="250" class="small">适应光照变化</text>
  </g>
</svg>
